<?xml version="1.0" encoding="UTF-8"?>
<svg width="512px" height="512px" viewBox="0 0 512 512" version="1.1" xmlns="http://www.w3.org/2000/svg" xmlns:xlink="http://www.w3.org/1999/xlink">
    <!-- Generator: Sketch 50.2 (55047) - http://www.bohemiancoding.com/sketch -->
    <title>icon</title>
    <desc>Created with Sketch.</desc>
    <defs>
        <radialGradient cx="50%" cy="53.9557373%" fx="50%" fy="53.9557373%" r="96.0442627%" id="radialGradient-1">
            <stop stop-color="#81D4FA" offset="0%"></stop>
            <stop stop-color="#0D47A1" offset="100%"></stop>
        </radialGradient>
        <linearGradient x1="48.5464532%" y1="98.3789939%" x2="49.13591%" y2="-2.68604729%" id="linearGradient-2">
            <stop stop-color="#FFFFFF" stop-opacity="0.6" offset="0%"></stop>
            <stop stop-color="#1A237E" stop-opacity="0.6" offset="100%"></stop>
        </linearGradient>
        <path d="M486,243 C486,377.200978 377.209116,486 243,486 C108.799022,486 0,377.209116 0,243 C0,108.799022 108.792511,0 243,0 C377.200978,0 486,108.790884 486,243 Z" id="path-3"></path>
        <radialGradient cx="50%" cy="50%" fx="50%" fy="50%" r="50%" id="radialGradient-5">
            <stop stop-color="#81D4FA" offset="0%"></stop>
            <stop stop-color="#0D47A1" offset="100%"></stop>
        </radialGradient>
        <path d="M486,243 C486,377.200978 377.209116,486 243,486 C108.799022,486 0,377.209116 0,243 C0,108.799022 108.792511,0 243,0 C377.200978,0 486,108.790884 486,243 Z" id="path-6"></path>
        <linearGradient x1="-3.72238093%" y1="78.8695302%" x2="121.458166%" y2="-22.1700256%" id="linearGradient-8">
            <stop stop-color="#FFFFFF" offset="0%"></stop>
            <stop stop-color="#FFFFFF" offset="100%"></stop>
        </linearGradient>
    </defs>
    <g id="icon" stroke="none" stroke-width="1" fill="none" fill-rule="evenodd">
        <g id="globe" transform="translate(12.000000, 12.000000)" fill="url(#radialGradient-1)" fill-rule="nonzero" stroke="url(#linearGradient-2)" stroke-width="1.63802208">
            <path d="M486,243 C486,377.200978 377.209116,486 243,486 C108.799022,486 0,377.209116 0,243 C0,108.799022 108.792511,0 243,0 C377.200978,0 486,108.790884 486,243 Z"></path>
        </g>
        <g id="waves" transform="translate(12.000000, 12.000000)">
            <mask id="mask-4" fill="white">
                <use xlink:href="#path-3"></use>
            </mask>
            <g id="globe" fill-rule="nonzero"></g>
            <path d="M16,550 L16,333.168197 C104.545087,251.567147 196.59307,294.955747 259.270812,359.260808 C312.358754,413.728856 383.224338,481.184522 449.77464,408.114092 L449.77464,550 L16,550" id="Fill-10" fill="#E1F3F8" mask="url(#mask-4)"></path>
            <path d="M449.77464,550 L449.77464,392.260767 C250.27131,341.452436 231.952439,518.733782 16,427.571534 L16,550 L449.77464,550" id="Fill-11" fill="#72BED1" mask="url(#mask-4)"></path>
            <path d="M444.078844,396.842046 C390.50129,390.364226 344.451127,402.70319 299.554663,417.922032 C346.825405,408.712234 394.455997,397.523769 436.332998,417.741427 C438.913735,410.775209 441.498107,403.808264 444.078844,396.842046" id="Fill-12" fill="#89CFE4" mask="url(#mask-4)"></path>
            <path d="M16,550 L16,376.406716 C151.220079,183.995195 359.965719,513.326514 449.77464,376.406716 L449.77464,550 L16,550" id="Fill-13" fill="#3799B8" mask="url(#mask-4)"></path>
            <path d="M16,550 L16,408.115182 C158.428332,257.500969 367.175062,501.436339 449.77464,383.251925 L449.77464,550 L16,550" id="Fill-14" fill="#49A7C5" mask="url(#mask-4)"></path>
            <path d="M16,550 L16,441.264132 C181.495032,342.537524 332.574285,496.392463 449.77464,427.571534 L449.77464,550 L16,550 L237.346627,524.325385" id="Fill-15" fill="#72BED1" mask="url(#mask-4)"></path>
            <path d="M16,512.338089 L16,475.134415 C175.368508,407.034818 391.682613,572.781023 449.77464,473.69175 L449.77464,504.103634 C332.574285,545.497577 181.495032,452.953351 16,512.338089" id="Fill-16" fill="#F3FAFB" mask="url(#mask-4)"></path>
        </g>
        <path d="M498,255 C498,389.200978 389.209116,498 255,498 C120.799022,498 12,389.209116 12,255 C12,120.799022 120.792511,12 255,12 C389.200978,12 498,120.790884 498,255 Z" id="globe-gradient" fill-opacity="0.3" fill="url(#radialGradient-5)" fill-rule="nonzero"></path>
        <g id="bubbles" transform="translate(12.000000, 12.000000)">
            <mask id="mask-7" fill="white">
                <use xlink:href="#path-6"></use>
            </mask>
            <g id="globe-copy" fill-rule="nonzero"></g>
            <path d="M16,473.818462 L16,427.192534 C179.264052,281.41891 290.189023,502.590497 450,472.379479 L450,486.57321 C294.070868,511.920322 162.047412,327.000216 16,473.818462" id="Fill-18" fill="#89CFE4" mask="url(#mask-7)"></path>
            <path d="M162.545201,426 C159.557356,426 157.135143,428.432943 157.135143,431.436472 C157.135143,434.438904 159.556993,436.873309 162.545201,436.873309 C165.533409,436.873309 167.955259,434.438904 167.955259,431.436472 C167.955259,428.432943 165.533409,426 162.545201,426 Z M173.545009,443.215554 C172.349726,443.215554 171.382514,444.18895 171.382514,445.39007 C171.382514,446.590823 172.349726,447.564585 173.545009,447.564585 C174.740292,447.564585 175.710051,446.590823 175.710051,445.39007 C175.710051,444.18895 174.740292,443.215554 173.545009,443.215554 Z M181.571159,434.335095 C180.027039,434.335095 178.775738,435.593236 178.775738,437.144529 C178.775738,438.695822 180.027039,439.953598 181.571159,439.953598 C183.114915,439.953598 184.365124,438.695822 184.365124,437.144529 C184.365124,435.593236 183.114915,434.335095 181.571159,434.335095 Z M191.940587,438.685588 C190.745304,438.685588 189.775546,439.658618 189.775546,440.859738 C189.775546,442.060857 190.745304,443.033888 191.940587,443.033888 C193.135507,443.033888 194.104174,442.060857 194.104174,440.859738 C194.104174,439.658618 193.135507,438.685588 191.940587,438.685588 Z M205.104346,451.189143 C203.909062,451.189143 202.941487,452.162174 202.941487,453.363293 C202.941487,454.564412 203.909062,455.537809 205.104346,455.537809 C206.299265,455.537809 207.269387,454.564412 207.269387,453.363293 C207.269387,452.162174 206.299265,451.189143 205.104346,451.189143 Z M215.384292,440.859738 C213.989674,440.859738 212.860229,441.995793 212.860229,443.396124 C212.860229,444.797917 213.989674,445.932876 215.384292,445.932876 C216.779274,445.932876 217.908719,444.797917 217.908719,443.396124 C217.908719,441.995793 216.779274,440.859738 215.384292,440.859738 Z M224.49078,454.450734 C222.35011,454.450734 220.613566,456.194659 220.613566,458.346878 C220.613566,460.498731 222.35011,462.242656 224.49078,462.242656 C226.632178,462.242656 228.368722,460.498731 228.368722,458.346878 C228.368722,456.194659 226.632178,454.450734 224.49078,454.450734 Z M199.694288,426.362236 C197.802423,426.362236 196.268124,427.90293 196.268124,429.805128 C196.268124,431.706961 197.802423,433.248751 199.694288,433.248751 C201.586881,433.248751 203.121179,431.706961 203.121179,429.805128 C203.121179,427.90293 201.586881,426.362236 199.694288,426.362236 Z M203.843224,437.41575 C202.049207,437.41575 200.595661,438.876392 200.595661,440.678071 C200.595661,442.479384 202.049207,443.940393 203.843224,443.940393 C205.635057,443.940393 207.088604,442.479384 207.088604,440.678071 C207.088604,438.876392 205.635057,437.41575 203.843224,437.41575 Z M113.402176,442.762667 C113.567683,442.762667 113.731734,442.766322 113.895058,442.773267 C113.634613,441.960337 113.493478,441.092943 113.493478,440.194114 C113.493478,435.55778 117.234285,431.798708 121.848094,431.798708 C122.512666,431.798708 123.160869,431.878027 123.780699,432.025334 C123.945114,428.969535 126.462266,426.542806 129.543231,426.542806 C132.730774,426.542806 135.313765,429.139505 135.313765,432.342611 C136.906991,432.366005 138.340531,433.04698 139.359395,434.126745 C140.051248,433.909256 140.786024,433.791557 141.548081,433.791557 C145.587891,433.791557 148.863826,437.083121 148.863826,441.142655 C148.863826,442.236309 148.626661,443.273307 148.201437,444.205399 C148.785983,444.640741 149.301418,445.164905 149.730279,445.755596 C150.176237,445.694553 150.630561,445.66129 151.09216,445.66129 C155.333852,445.66129 158.95244,448.337308 160.370702,452.099669 C161.219695,451.689183 162.170538,451.460364 163.17558,451.460364 C166.270367,451.460364 168.859542,453.637072 169.509927,456.549951 C170.662652,454.975995 172.51887,453.953253 174.613344,453.953253 C178.112257,453.953253 180.948782,456.803626 180.948782,460.318161 C180.948782,460.462178 180.942962,460.603637 180.933504,460.745095 C181.162303,460.853657 181.378735,460.981591 181.58389,461.126339 C181.833059,456.746969 185.445463,453.272643 189.864665,453.272643 C194.447191,453.272643 198.160717,457.005396 198.160717,461.608834 L198.160717,461.617241 C200.715699,461.732747 202.95349,463.059973 204.322283,465.040759 C205.179278,464.312997 206.285443,463.874365 207.494549,463.874365 C210.025887,463.874365 212.109812,465.79813 212.378987,468.270184 C212.842769,468.122877 213.336742,468.042461 213.851085,468.042461 C215.241338,468.042461 216.495185,468.627668 217.382736,469.567802 C218.353585,467.998963 220.082854,466.955751 222.055472,466.955751 C224.847255,466.955751 227.153432,469.046561 227.507725,471.755111 C228.259233,471.29601 229.139872,471.0321 230.081622,471.0321 C230.616698,471.0321 231.131041,471.117999 231.614829,471.275175 C231.654841,469.333134 233.233881,467.77124 235.175944,467.77124 C237.143469,467.77124 238.73815,469.373342 238.73815,471.349377 C238.73815,472.010979 238.558094,472.630912 238.248542,473.161656 C239.304873,473.877722 240,475.091634 240,476.468571 C240,478.671598 238.223444,480.455366 236.031485,480.455366 C235.092281,480.455366 234.229466,480.126392 233.549617,479.578103 C232.655155,480.459021 231.431863,481 230.081622,481 C227.679415,481 225.675151,479.282027 225.219735,477.003336 C224.32491,477.636428 223.234023,478.00963 222.055472,478.00963 C220.299286,478.00963 218.735159,477.182444 217.727935,475.893964 C216.838929,477.069131 215.433762,477.827598 213.851085,477.827598 C211.606382,477.827598 209.718518,476.302257 209.153614,474.226799 C208.704018,476.436771 206.759773,478.101377 204.42777,478.101377 C203.163374,478.101377 202.012832,477.610841 201.152199,476.810704 C200.134426,477.288447 198.998798,477.556377 197.80024,477.556377 C193.539634,477.556377 190.062181,474.181108 189.874122,469.94539 L189.864665,469.94539 C187.08925,469.94539 184.633208,468.574667 183.126919,466.470698 C182.461256,468.08011 180.880761,469.211414 179.039821,469.211414 C177.273813,469.211414 175.748608,468.171857 175.038568,466.669179 C174.897796,466.677586 174.756661,466.683069 174.613344,466.683069 C173.848013,466.683069 173.11542,466.546362 172.437026,466.296342 C171.482181,467.936093 169.710354,469.039616 167.684265,469.039616 C164.962685,469.039616 162.703796,467.052616 162.262203,464.443855 C160.733725,464.227829 159.376209,463.477769 158.38317,462.385211 C156.57133,464.359053 153.975609,465.595628 151.09216,465.595628 C148.927119,465.595628 146.923946,464.898204 145.292162,463.713534 C144.101608,465.504612 142.072972,466.683069 139.769342,466.683069 C138.101911,466.683069 136.579252,466.066426 135.413432,465.046973 C133.804929,469.388694 129.64399,472.481777 124.763552,472.481777 C119.678324,472.481777 115.37443,469.124418 113.924522,464.496125 C113.752104,464.504167 113.577868,464.508919 113.402176,464.508919 C110.830826,464.508919 108.468632,463.606435 106.612414,462.100832 C105.498247,463.349104 103.881377,464.134986 102.081541,464.134986 C98.723762,464.134986 96,461.399022 96,458.024849 C96,454.649214 98.723762,451.913251 102.081541,451.913251 C102.295062,451.913251 102.504218,451.924947 102.71192,451.946514 C103.519809,446.743248 107.99903,442.762667 113.402176,442.762667 Z" id="Fill-19" fill="#F3FAFB" mask="url(#mask-7)"></path>
            <path d="M112.070667,308.131426 C113.4256,308.131426 114.660047,308.663583 115.58462,309.534654 C115.919746,309.45389 116.271466,309.410742 116.631122,309.410742 C119.149798,309.410742 121.191938,311.498805 121.191938,314.073665 C121.191938,316.648156 119.149798,318.73585 116.631122,318.73585 C115.832447,318.73585 115.08139,318.525273 114.429535,318.157594 C113.721406,318.52638 112.920566,318.73585 112.070667,318.73585 C111.727965,318.73585 111.395364,318.701553 111.071421,318.637384 C110.227293,321.548945 107.591377,323.672042 104.469547,323.672042 C103.889479,323.672042 103.327449,323.598654 102.789588,323.461466 C101.627289,325.963675 99.1320608,327.694384 96.2421851,327.694384 C92.2415957,327.694384 89,324.379373 89,320.289543 C89,316.200819 92.2415957,312.885438 96.2421851,312.885438 C97.0083935,312.885438 97.7464644,313.006769 98.4405252,313.231728 C99.6129251,311.062901 101.872951,309.594398 104.469547,309.594398 C105.669002,309.594398 106.794867,309.907496 107.776436,310.458462 C108.710027,309.053758 110.28429,308.131426 112.070667,308.131426 Z M200.889523,335.091113 C200.837216,335.154175 200.785991,335.218344 200.735848,335.283988 C200.755689,335.196954 200.773365,335.109921 200.789598,335.023257 L200.889523,335.091113 Z M204.55715,322.608096 C201.756016,322.608096 199.358549,324.379373 198.376979,326.886007 C196.773497,325.239749 194.555677,324.221164 192.103377,324.221164 C187.213207,324.221164 183.249773,328.27264 183.249773,333.271157 C183.249773,338.268937 187.213207,342.321151 192.103377,342.321151 C195.072615,342.321151 197.699152,340.827201 199.304799,338.535937 C199.226879,338.974792 199.185033,339.428767 199.185033,339.891592 C199.185033,344.026783 202.463785,347.379042 206.508745,347.379042 C208.713939,347.379042 210.691147,346.382215 212.034898,344.806395 C213.064084,347.829698 215.876041,350 219.184012,350 C223.363889,350 226.753387,346.535999 226.753387,342.262883 C226.753387,337.989766 223.363889,334.524659 219.184012,334.524659 C216.85292,334.524659 214.768934,335.601512 213.380813,337.295712 C212.763589,335.589711 211.556198,334.176894 210.011155,333.315043 C210.769066,332.21053 211.213857,330.865201 211.213857,329.413293 C211.213857,325.65537 208.234518,322.608096 204.55715,322.608096 Z M126.417595,306.113801 C127.134743,306.113801 127.714811,306.706439 127.714811,307.438478 C127.714811,308.171992 127.134743,308.76463 126.417595,308.76463 C125.702612,308.76463 125.121823,308.171992 125.121823,307.438478 C125.121823,306.706439 125.702612,306.113801 126.417595,306.113801 Z M132.36509,306.022342 C133.352431,306.022342 134.153631,306.841046 134.153631,307.850411 C134.153631,308.860883 133.352431,309.678849 132.36509,309.678849 C131.377749,309.678849 130.576549,308.860883 130.576549,307.850411 C130.576549,306.841046 131.377749,306.022342 132.36509,306.022342 Z M139.205773,302 C140.020681,302 140.680833,302.674877 140.680833,303.508332 C140.680833,304.341418 140.020681,305.016296 139.205773,305.016296 C138.390865,305.016296 137.730353,304.341418 137.730353,303.508332 C137.730353,302.674877 138.390865,302 139.205773,302 Z M168.625437,309.039744 C167.514723,309.039744 166.613238,309.959864 166.613238,311.09646 C166.613238,312.231951 167.514723,313.153177 168.625437,313.153177 C169.737593,313.153177 170.637636,312.231951 170.637636,311.09646 C170.637636,309.959864 169.737593,309.039744 168.625437,309.039744 Z M171.531546,315.347081 C172.518887,315.347081 173.320087,316.164678 173.320087,317.175519 C173.320087,318.184884 172.518887,319.002482 171.531546,319.002482 C170.544204,319.002482 169.743365,318.184884 169.743365,317.175519 C169.743365,316.164678 170.544204,315.347081 171.531546,315.347081 Z M217.272098,327.321911 C217.989246,327.321911 218.569314,327.915656 218.569314,328.648063 C218.569314,329.379734 217.989246,329.972741 217.272098,329.972741 C216.557115,329.972741 215.976326,329.379734 215.976326,328.648063 C215.976326,327.915656 216.557115,327.321911 217.272098,327.321911 Z M223.624702,326.955339 C225.008134,326.955339 226.130392,328.101524 226.130392,329.515447 C226.130392,330.928632 225.008134,332.074817 223.624702,332.074817 C222.242713,332.074817 221.121538,330.928632 221.121538,329.515447 C221.121538,328.101524 222.242713,326.955339 223.624702,326.955339 Z M229.792608,333.812534 C230.459614,333.812534 231,334.364975 231,335.046859 C231,335.728005 230.459614,336.281552 229.792608,336.281552 C229.125242,336.281552 228.584856,335.728005 228.584856,335.046859 C228.584856,334.364975 229.125242,333.812534 229.792608,333.812534 Z M214.321619,318.728843 C214.889782,318.728843 215.349723,319.199044 215.349723,319.779881 C215.349723,320.360718 214.889782,320.83092 214.321619,320.83092 C213.753456,320.83092 213.293514,320.360718 213.293514,319.779881 C213.293514,319.199044 213.753456,318.728843 214.321619,318.728843 Z M199.209564,313.700823 C200.962031,313.700823 202.383701,315.154206 202.383701,316.945765 C202.383701,318.738431 200.962031,320.190339 199.209564,320.190339 C197.456014,320.190339 196.034344,318.738431 196.034344,316.945765 C196.034344,315.154206 197.456014,313.700823 199.209564,313.700823 Z M143.010842,311.604647 C144.550113,311.604647 145.937874,312.267723 146.916197,313.329456 C148.0803,311.209309 150.299563,309.776578 152.846015,309.776578 C155.801185,309.776578 158.314089,311.704588 159.251287,314.395983 C159.804299,314.245888 160.384006,314.165124 160.984996,314.165124 C164.688698,314.165124 167.691485,317.234893 167.691485,321.021213 C167.691485,324.807901 164.688698,327.877671 160.984996,327.877671 C160.258469,327.877671 159.561162,327.759659 158.906782,327.542076 C157.79679,328.760912 156.213509,329.522822 154.456352,329.522822 C151.098598,329.522822 148.376105,326.739599 148.376105,323.30547 C148.376105,322.880629 148.417951,322.463901 148.498396,322.063032 C147.988672,321.628234 147.541357,321.117835 147.173403,320.550274 C146.18967,321.785705 144.690801,322.574906 143.010842,322.574906 C140.047376,322.574906 137.64558,320.119164 137.64558,317.089592 C137.64558,314.060389 140.047376,311.604647 143.010842,311.604647 Z" id="Fill-21" fill="#3799B8" mask="url(#mask-7)"></path>
            <path d="M287.480168,351.090428 C288.606956,351.090428 289.521487,352.006527 289.521487,353.135698 C289.521487,354.264869 288.606956,355.180969 287.480168,355.180969 C286.352282,355.180969 285.439215,354.264869 285.439215,353.135698 C285.439215,352.006527 286.352282,351.090428 287.480168,351.090428 Z M298.502487,360.908973 C299.654892,360.908973 300.588454,361.844142 300.588454,362.999351 C300.588454,364.154927 299.654892,365.08973 298.502487,365.08973 C297.34935,365.08973 296.416155,364.154927 296.416155,362.999351 C296.416155,361.844142 297.34935,360.908973 298.502487,360.908973 Z M309.887838,359.999841 C311.014626,359.999841 311.928791,360.91484 311.928791,362.045478 C311.928791,363.17465 311.014626,364.090749 309.887838,364.090749 C308.759952,364.090749 307.846884,363.17465 307.846884,362.045478 C307.846884,360.91484 308.759952,359.999841 309.887838,359.999841 Z M316.781408,368.545089 C317.458066,368.545089 318.005906,369.094088 318.005906,369.772544 C318.005906,370.4499 317.458066,371 316.781408,371 C316.105481,371 315.557641,370.4499 315.557641,369.772544 C315.557641,369.094088 316.105481,368.545089 316.781408,368.545089 Z M328.800965,359.817575 C330.153916,359.817575 331.251061,360.916307 331.251061,362.272486 C331.251061,363.627932 330.153916,364.726297 328.800965,364.726297 C327.448747,364.726297 326.352699,363.627932 326.352699,362.272486 C326.352699,360.916307 327.448747,359.817575 328.800965,359.817575 Z M320.909791,361.090139 C322.111966,361.090139 323.086515,362.066382 323.086515,363.271467 C323.086515,364.476919 322.111966,365.454629 320.909791,365.454629 C319.70725,365.454629 318.732701,364.476919 318.732701,363.271467 C318.732701,362.066382 319.70725,361.090139 320.909791,361.090139 Z M299.409334,350.999111 C301.063102,350.999111 302.402512,352.342455 302.402512,353.999721 C302.402512,355.655888 301.063102,356.999231 299.409334,356.999231 C297.755565,356.999231 296.416155,355.655888 296.416155,353.999721 C296.416155,352.342455 297.755565,350.999111 299.409334,350.999111 Z M310.930821,367.635957 C311.831812,367.635957 312.562998,368.36869 312.562998,369.271954 C312.562998,370.175217 311.831812,370.90795 310.930821,370.90795 C310.028366,370.90795 309.29718,370.175217 309.29718,369.271954 C309.29718,368.36869 310.028366,367.635957 310.930821,367.635957 Z M336.603211,290.272881 C338.306384,290.272881 339.687514,291.656565 339.687514,293.363341 C339.687514,295.070117 338.306384,296.454167 336.603211,296.454167 C334.900038,296.454167 333.518909,295.070117 333.518909,293.363341 C333.518909,291.656565 334.900038,290.272881 336.603211,290.272881 Z M346.853723,301.908588 C347.906221,301.908588 348.758905,302.764177 348.758905,303.817801 C348.758905,304.872525 347.906221,305.727013 346.853723,305.727013 C345.802323,305.727013 344.949272,304.872525 344.949272,303.817801 C344.949272,302.764177 345.802323,301.908588 346.853723,301.908588 Z M356.560785,308.636673 C358.46487,308.636673 360.007387,310.182453 360.007387,312.090565 C360.007387,313.998678 358.46487,315.544824 356.560785,315.544824 C354.656701,315.544824 353.11272,313.998678 353.11272,312.090565 C353.11272,310.182453 354.656701,308.636673 356.560785,308.636673 Z M361.368389,325.726801 C362.019064,325.726801 362.548241,326.255997 362.548241,326.908415 C362.548241,327.561567 362.019064,328.089663 361.368389,328.089663 C360.717348,328.089663 360.189269,327.561567 360.189269,326.908415 C360.189269,326.255997 360.717348,325.726801 361.368389,325.726801 Z M356.107362,341.726999 C357.759301,341.726999 359.100175,343.069242 359.100175,344.726509 C359.100175,346.383776 357.759301,347.726019 356.107362,347.726019 C354.453227,347.726019 353.11272,346.383776 353.11272,344.726509 C353.11272,343.069242 354.453227,341.726999 356.107362,341.726999 Z M362.910906,334.817748 C363.512177,334.817748 364,335.305503 364,335.909145 C364,336.511688 363.512177,336.999443 362.910906,336.999443 C362.309635,336.999443 361.82291,336.511688 361.82291,335.909145 C361.82291,335.305503 362.309635,334.817748 362.910906,334.817748 Z M346.762965,348.090551 C347.564781,348.090551 348.214358,348.741503 348.214358,349.544281 C348.214358,350.347793 347.564781,350.999111 346.762965,350.999111 C345.961881,350.999111 345.312303,350.347793 345.312303,349.544281 C345.312303,348.741503 345.961881,348.090551 346.762965,348.090551 Z M343.76942,357.181498 C344.220648,357.181498 344.585509,357.54713 344.585509,357.999312 C344.585509,358.451494 344.220648,358.817494 343.76942,358.817494 C343.318193,358.817494 342.952966,358.451494 342.952966,357.999312 C342.952966,357.54713 343.318193,357.181498 343.76942,357.181498 Z M337.691939,364.090749 C338.193303,364.090749 338.599517,364.497823 338.599517,364.999513 C338.599517,365.501571 338.193303,365.909011 337.691939,365.909011 C337.189843,365.909011 336.783995,365.501571 336.783995,364.999513 C336.783995,364.497823 337.189843,364.090749 337.691939,364.090749 Z M313.832876,275.364081 C315.487011,275.364081 316.826421,276.706324 316.826421,278.363591 C316.826421,280.020858 315.487011,281.363101 313.832876,281.363101 C312.179473,281.363101 310.839697,280.020858 310.839697,278.363591 C310.839697,276.706324 312.179473,275.364081 313.832876,275.364081 Z M322.633092,275.000649 C323.835267,275.000649 324.809816,275.977259 324.809816,277.181977 C324.809816,278.387062 323.835267,279.363672 322.633092,279.363672 C321.430551,279.363672 320.454904,278.387062 320.454904,277.181977 C320.454904,275.977259 321.430551,275.000649 322.633092,275.000649 Z M326.442359,281.364201 C327.344814,281.364201 328.076,282.095834 328.076,283.000197 C328.076,283.903094 327.344814,284.636194 326.442359,284.636194 C325.541002,284.636194 324.809816,283.903094 324.809816,283.000197 C324.809816,282.095834 325.541002,281.364201 326.442359,281.364201 Z M304.943366,270.818425 C306.496496,270.818425 307.754663,272.079253 307.754663,273.635668 C307.754663,275.19245 306.496496,276.454012 304.943366,276.454012 C303.38987,276.454012 302.130971,275.19245 302.130971,273.635668 C302.130971,272.079253 303.38987,270.818425 304.943366,270.818425 Z M322.179669,267 C323.031255,267 323.721088,267.692392 323.721088,268.54468 C323.721088,269.399535 323.031255,270.09046 322.179669,270.09046 C321.328082,270.09046 320.636786,269.399535 320.636786,268.54468 C320.636786,267.692392 321.328082,267 322.179669,267 Z M337.781965,274.090417 C339.536007,274.090417 340.957025,275.515542 340.957025,277.272194 C340.957025,279.029945 339.536007,280.45397 337.781965,280.45397 C336.029021,280.45397 334.606905,279.029945 334.606905,277.272194 C334.606905,275.515542 336.029021,274.090417 337.781965,274.090417 Z M279.405649,350.908895 C280.182945,350.908895 280.812761,351.538576 280.812761,352.317517 C280.812761,353.095358 280.182945,353.726139 279.405649,353.726139 C278.629815,353.726139 278,353.095358 278,352.317517 C278,351.538576 278.629815,350.908895 279.405649,350.908895 Z" id="Fill-23" fill="#FFFFFE" mask="url(#mask-7)"></path>
            <path d="M229.668173,248.723149 C232.060908,248.723149 234,250.654946 234,253.035888 C234,255.417918 232.060908,257.350078 229.668173,257.350078 C227.275437,257.350078 225.335618,255.417918 225.335618,253.035888 C225.335618,250.654946 227.275437,248.723149 229.668173,248.723149 Z M214.054227,242.791818 C215.199987,242.791818 216.130576,243.717659 216.130576,244.858467 C216.130576,246.000363 215.199987,246.925842 214.054227,246.925842 C212.908466,246.925842 211.978969,246.000363 211.978969,244.858467 C211.978969,243.717659 212.908466,242.791818 214.054227,242.791818 Z M206.292399,248.363905 C208.136102,248.363905 209.632108,249.851994 209.632108,251.687727 C209.632108,253.524909 208.136102,255.013361 206.292399,255.013361 C204.448697,255.013361 202.952691,253.524909 202.952691,251.687727 C202.952691,249.851994 204.448697,248.363905 206.292399,248.363905 Z M182.195019,241.175039 C183.691024,241.175039 184.902319,242.38146 184.902319,243.870637 C184.902319,245.359089 183.691024,246.566598 182.195019,246.566598 C180.700105,246.566598 179.48881,245.359089 179.48881,243.870637 C179.48881,242.38146 180.700105,241.175039 182.195019,241.175039 Z M166.582164,241.534283 C169.124901,241.534283 171.184867,243.586432 171.184867,246.117452 C171.184867,248.64811 169.124901,250.700259 166.582164,250.700259 C164.040156,250.700259 161.98019,248.64811 161.98019,246.117452 C161.98019,243.586432 164.040156,241.534283 166.582164,241.534283 Z M173.531729,255.372242 C174.3287,255.372242 174.974943,256.016054 174.974943,256.810306 C174.974943,257.60492 174.3287,258.248369 173.531729,258.248369 C172.734029,258.248369 172.087422,257.60492 172.087422,256.810306 C172.087422,256.016054 172.734029,255.372242 173.531729,255.372242 Z M173.169833,229.852512 C174.664746,229.852512 175.877498,231.060021 175.877498,232.54811 C175.877498,234.036561 174.664746,235.24407 173.169833,235.24407 C171.675283,235.24407 170.462532,234.036561 170.462532,232.54811 C170.462532,231.060021 171.675283,229.852512 173.169833,229.852512 Z M182.827062,225 C185.070524,225 186.888377,226.809995 186.888377,229.04376 C186.888377,231.277525 185.070524,233.087519 182.827062,233.087519 C180.585056,233.087519 178.765746,231.277525 178.765746,229.04376 C178.765746,226.809995 180.585056,225 182.827062,225 Z M139.687919,236.861212 C140.535134,236.861212 141.222517,237.545624 141.222517,238.389177 C141.222517,239.232729 140.535134,239.917141 139.687919,239.917141 C138.839248,239.917141 138.152957,239.232729 138.152957,238.389177 C138.152957,237.545624 138.839248,236.861212 139.687919,236.861212 Z M154.579166,235.602952 C156.672264,235.602952 158.368878,237.292595 158.368878,239.377732 C158.368878,241.461419 156.672264,243.151424 154.579166,243.151424 C152.484976,243.151424 150.787998,241.461419 150.787998,239.377732 C150.787998,237.292595 152.484976,235.602952 154.579166,235.602952 Z M117.756088,239.377732 C118.652817,239.377732 119.38025,240.10202 119.38025,240.994873 C119.38025,241.887364 118.652817,242.611652 117.756088,242.611652 C116.859722,242.611652 116.131197,241.887364 116.131197,240.994873 C116.131197,240.10202 116.859722,239.377732 117.756088,239.377732 Z M115.139079,250.879337 C115.986293,250.879337 116.673677,251.564112 116.673677,252.407664 C116.673677,253.251217 115.986293,253.934542 115.139079,253.934542 C114.291864,253.934542 113.60448,253.251217 113.60448,252.407664 C113.60448,251.564112 114.291864,250.879337 115.139079,250.879337 Z M100.517979,246.027188 C101.864712,246.027188 102.955497,247.112895 102.955497,248.454169 C102.955497,249.79363 101.864712,250.879337 100.517979,250.879337 C99.1723385,250.879337 98.0819181,249.79363 98.0819181,248.454169 C98.0819181,247.112895 99.1723385,246.027188 100.517979,246.027188 Z M94.7422098,256.63014 C95.5894245,256.63014 96.2768081,257.314915 96.2768081,258.158467 C96.2768081,259.00202 95.5894245,259.686432 94.7422098,259.686432 C93.894995,259.686432 93.2087037,259.00202 93.2087037,258.158467 C93.2087037,257.314915 93.894995,256.63014 94.7422098,256.63014 Z M82.288116,260.944329 C83.6337567,260.944329 84.7241771,262.030036 84.7241771,263.36986 C84.7241771,264.710772 83.6337567,265.796479 82.288116,265.796479 C80.9424753,265.796479 79.8520549,264.710772 79.8520549,263.36986 C79.8520549,262.030036 80.9424753,260.944329 82.288116,260.944329 Z M75.4288437,268.133195 C76.2760585,268.133195 76.9634421,268.817607 76.9634421,269.660073 C76.9634421,270.505075 76.2760585,271.188037 75.4288437,271.188037 C74.5816289,271.188037 73.8942454,270.505075 73.8942454,269.660073 C73.8942454,268.817607 74.5816289,268.133195 75.4288437,268.133195 Z M64.2377444,283.587571 C64.6855631,283.587571 65.0500075,283.950078 65.0500075,284.397048 C65.0500075,284.842569 64.6855631,285.205438 64.2377444,285.205438 C63.7888334,285.205438 63.4258454,284.842569 63.4258454,284.397048 C63.4258454,283.950078 63.7888334,283.587571 64.2377444,283.587571 Z M58.2366093,290.328017 C58.6596706,290.328017 59.0026342,290.66986 59.0026342,291.091093 C59.0026342,291.513413 58.6596706,291.854894 58.2366093,291.854894 C57.8120917,291.854894 57.4691281,291.513413 57.4691281,291.091093 C57.4691281,290.66986 57.8120917,290.328017 58.2366093,290.328017 Z M48.8943096,291.22667 C49.9410404,291.22667 50.7908038,292.07131 50.7908038,293.112791 C50.7908038,294.15536 49.9410404,295 48.8943096,295 C47.848307,295 47,294.15536 47,293.112791 C47,292.07131 47.848307,291.22667 48.8943096,291.22667 Z M54.1294198,278.646245 C55.0261495,278.646245 55.7546741,279.369083 55.7546741,280.263387 C55.7546741,281.155878 55.0261495,281.880166 54.1294198,281.880166 C53.2326901,281.880166 52.5052577,281.155878 52.5052577,280.263387 C52.5052577,279.369083 53.2326901,278.646245 54.1294198,278.646245 Z M65.9525625,273.703832 C68.1454179,273.703832 69.9243141,275.472864 69.9243141,277.657328 C69.9243141,279.840704 68.1454179,281.611186 65.9525625,281.611186 C63.759707,281.611186 61.9804467,279.840704 61.9804467,277.657328 C61.9804467,275.472864 63.759707,273.703832 65.9525625,273.703832 Z M218.386782,255.013361 C221.42576,255.013361 223.891311,257.467892 223.891311,260.494821 C223.891311,263.52175 221.42576,265.975557 218.386782,265.975557 C215.345619,265.975557 212.88116,263.52175 212.881524,260.494821 C212.881524,257.467892 215.345619,255.013361 218.386782,255.013361 Z" id="Fill-24" fill="#E1F3F8" mask="url(#mask-7)"></path>
        </g>
        <g id="dolphin" transform="translate(46.000000, 27.000000)">
            <path d="M141.64075,89.1651459 C140.163558,89.1633995 138.638498,89.5752799 137.388073,90.0949918 C105.318,103.424229 94.2964309,126.359624 85.1389394,150.001674 C77.4751365,155.215286 70.3073691,160.931751 63.6977899,167.026058 C20.3443331,206.999732 10.380792,272.701684 50.7483192,313.750262 C56.4011352,319.498448 59.4705054,326.055595 57.8315565,336.299023 L56.05391,347.34778 C51.9613181,372.926481 81.7937224,374.035435 90.089002,357.958964 C99.6495857,339.430316 105.123475,319.960197 112.637763,304.027904 C152.501276,319.524832 199.083472,279.444461 195.298324,252.749639 C171.108602,268.88797 151.260547,271.979829 136.49925,259.832879 C182.724178,198.750302 241.305298,198.849985 300.056399,205.464242 C320.424111,207.757263 332.693214,215.944235 365.47379,215.624176 C359.904185,224.197811 355.277968,234.245307 359.716949,246.568899 C361.326862,251.038362 360.483309,254.173821 361.002326,259.149168 C361.231465,261.345701 364.872459,261.062913 366.444658,258.903033 C380.582752,239.480228 398.699671,226.88463 383.154537,207.665791 C398.152531,200.170891 396.580126,182.951418 391.646221,164.058754 C389.740977,156.763311 390.68872,149.643013 390.169403,142.535558 C389.961723,139.69321 385.893083,139.896709 385.356081,142.41249 C383.666309,150.328851 373.951259,158.077996 371.134911,166.793594 C368.138132,176.067576 365.762183,184.681077 365.911366,197.943433 C332.349048,184.024118 314.623883,167.169003 289.445218,151.970758 C233.386213,118.132662 181.189687,113.68891 137.538488,125.661596 C136.772554,118.419924 137.029779,114.732703 139.822081,111.536141 C144.703592,105.947914 148.0801,99.3962155 147.11043,94.074185 C146.427338,90.3250465 144.102733,89.1681081 141.64075,89.1651459 Z" id="shape" stroke="#505E16" fill="#829924" fill-rule="nonzero" transform="translate(210.177306, 228.875467) scale(-1, 1) rotate(62.000000) translate(-210.177306, -228.875467) "></path>
            <path d="M320.071837,122.135043 C320.464576,122.534151 320.832986,122.882484 321.170116,123.182405 C321.430784,123.509485 321.670598,123.782247 321.884346,123.998332 C322.311841,124.430502 322.633331,124.638321 322.824487,124.600536 C323.015643,124.563932 323.078203,124.281722 322.991314,123.733835 C322.944394,123.459891 322.862718,123.119823 322.737598,122.71245 C322.532539,122.32397 322.271872,121.868184 321.94343,121.347455 C321.94343,121.347455 322.009466,121.326201 321.111032,120.559867 C320.70439,120.163121 319.96757,119.601064 318.608622,118.950448 C317.267053,118.322267 314.917568,117.704713 311.951171,118.153414 C309.062973,118.723736 307.3947,119.838403 306.456297,120.707466 C305.903681,121.118381 305.6378,121.541105 305.342377,121.863461 C305.043478,122.186998 304.862749,122.462122 304.75153,122.692377 C304.247573,123.593321 304.247573,123.593321 304.247573,123.593321 C304.099861,124.148293 304.059892,124.640683 304.007759,125.051599 C303.969527,125.466056 304.082483,125.81439 304.131141,126.087153 C304.263213,126.633859 304.436991,126.893634 304.635099,126.893634 C304.834944,126.893634 305.060856,126.633859 305.30067,126.14265 C305.436217,125.899407 305.500515,125.587678 305.698623,125.238164 C305.886304,124.893372 306.105264,124.493084 306.35203,124.034937 C306.35203,124.034937 306.35203,124.034937 306.781262,123.274507 C306.869889,123.077315 307.022814,122.84706 307.276531,122.581382 C307.523296,122.316885 307.735306,121.955563 308.192343,121.628483 C308.948279,120.904658 310.319391,120.040319 312.48467,119.605787 C314.691657,119.288154 316.368618,119.721505 317.406076,120.204449 C318.441795,120.707466 319.046544,121.147901 319.376723,121.484427 C320.118757,122.106704 320.070099,122.136224 320.071837,122.135043" id="eyes" fill="#505E16" transform="translate(313.514865, 122.446817) rotate(11.000000) translate(-313.514865, -122.446817) "></path>
        </g>
        <g id="reflection" transform="translate(28.000000, 35.000000)">
            <path d="M313.214272,15.9582291 L292.741483,34.952961 C316.022972,41.9602547 338.503542,52.8291578 358.962225,66.7246854 L373.998957,52.9682697 C355.811371,37.8085155 335.23357,25.341705 313.215369,15.9579158 L313.214272,15.9582291 Z M383.793827,61.6333139 L369.540773,74.3128654 C392.279957,91.5530323 412.317021,110.96134 427.230402,134.779559 L435.911824,130.851214 C424.362143,103.240315 405.376617,81.8126905 383.794141,61.6336273 L383.793827,61.6333139 Z" id="path12295" stroke="#FFFFFF" stroke-width="0.95735" fill="#FFFFFF" fill-rule="nonzero" opacity="0.94"></path>
            <path d="M301.407846,15.3165426 C305.164321,17.4756659 201.437154,3.95924643 120.043976,51.0000031 C38.6492276,98.0410737 3.0263683,193.939491 0.858416221,190.187633 C-1.30953586,186.436404 5.73874166,104.824243 106.296868,33.190454 C177.117159,-17.2602543 278.414367,2.09870192 301.412555,15.3181124 L301.407846,15.3165426 Z" id="path12297" fill="url(#linearGradient-8)"></path>
        </g>
    </g>
</svg>