<?xml version="1.0" encoding="UTF-8"?>
<svg height="211px" version="1.1" viewBox="0 0 80 211" width="80px"
    xmlns="http://www.w3.org/2000/svg">
    <!-- Generator: Sketch 50.2 (55047) - http://www.bohemiancoding.com/sketch -->
    <title>HELL NO Nope never S Copy</title>
    <desc>Created with Sketch.</desc>
    <defs></defs>
    <g fill="none" fill-rule="evenodd" id="Page-1" stroke="none" stroke-width="1">
        <g fill="#C62828" id="No" transform="translate(-139.000000, -194.000000)">
            <path
                d="M157.748,194.216 L163.796,194.216 L163.796,221 L157.748,221 L157.748,210.632 L150.584,210.632 L150.584,221 L144.536,221 L144.536,194.216 L150.584,194.216 L150.584,204.584 L157.748,204.584 L157.748,194.216 Z M183.056,200.264 L172.688,200.264 L172.688,204.584 L180.32,204.584 L180.32,210.632 L172.688,210.632 L172.688,214.952 L183.056,214.952 L183.056,221 L166.64,221 L166.64,194.216 L183.056,194.216 L183.056,200.264 Z M191.48,214.952 L198.644,214.952 L198.644,221 L185.432,221 L185.432,194.216 L191.48,194.216 L191.48,214.952 Z M206.996,214.952 L214.16,214.952 L214.16,221 L200.948,221 L200.948,194.216 L206.996,194.216 L206.996,214.952 Z M165.108,227.384 L175.86,227.384 L175.86,275 L164.98,275 L151.54,248.376 L151.54,275 L140.788,275 L140.788,227.384 L151.732,227.384 L165.108,253.944 L165.108,227.384 Z M216.244,256.056 C216.201333,258.573346 215.732004,260.962655 214.836,263.224 C213.939996,265.485345 212.638675,267.511991 210.932,269.304 C209.182658,271.181343 207.188011,272.610662 204.948,273.592 C202.707989,274.573338 200.329346,275.064 197.812,275.064 L197.748,275.064 C195.273321,275.064 192.916011,274.573338 190.676,273.592 C188.435989,272.610662 186.420009,271.202676 184.628,269.368 C182.963992,267.575991 181.673338,265.549345 180.756,263.288 C179.838662,261.026655 179.358667,258.616013 179.316,256.056 L179.316,244.92 C179.529334,242.658655 180.094662,240.525343 181.012,238.52 C181.929338,236.514657 183.134659,234.701341 184.628,233.08 C186.420009,231.245324 188.425322,229.837338 190.644,228.856 C192.862678,227.874662 195.230654,227.384 197.748,227.384 L197.812,227.384 C200.329346,227.384 202.707989,227.874662 204.948,228.856 C207.188011,229.837338 209.182658,231.245324 210.932,233.08 C212.468008,234.701341 213.683996,236.514657 214.58,238.52 C215.476004,240.525343 216.030666,242.658655 216.244,244.92 L216.244,256.056 Z M153.5,283.216 L159.548,283.216 L159.548,310 L153.428,310 L145.868,295.024 L145.868,310 L139.82,310 L139.82,283.216 L145.976,283.216 L153.5,298.156 L153.5,283.216 Z M182.264,299.344 C182.24,300.760007 181.976003,302.103994 181.472,303.376 C180.967997,304.648006 180.236005,305.787995 179.276,306.796 C178.291995,307.852005 177.170006,308.655997 175.91,309.208 C174.649994,309.760003 173.312007,310.036 171.896,310.036 L171.86,310.036 C170.467993,310.036 169.142006,309.760003 167.882,309.208 C166.621994,308.655997 165.488005,307.864005 164.48,306.832 C163.543995,305.823995 162.818003,304.684006 162.302,303.412 C161.785997,302.139994 161.516,300.784007 161.492,299.344 L161.492,293.08 C161.612001,291.807994 161.929997,290.608006 162.446,289.48 C162.962003,288.351994 163.639996,287.332005 164.48,286.42 C165.488005,285.387995 166.615994,284.596003 167.864,284.044 C169.112006,283.491997 170.443993,283.216 171.86,283.216 L171.896,283.216 C173.312007,283.216 174.649994,283.491997 175.91,284.044 C177.170006,284.596003 178.291995,285.387995 179.276,286.42 C180.140004,287.332005 180.823997,288.351994 181.328,289.48 C181.832003,290.608006 182.143999,291.807994 182.264,293.08 L182.264,299.344 Z M192.704,283.216 C193.856006,283.216 194.935995,283.431998 195.944,283.864 C196.952005,284.296002 197.833996,284.889996 198.59,285.646 C199.346004,286.402004 199.939998,287.283995 200.372,288.292 C200.804002,289.300005 201.02,290.379994 201.02,291.532 C201.02,292.684006 200.804002,293.763995 200.372,294.772 C199.939998,295.780005 199.346004,296.661996 198.59,297.418 C197.833996,298.174004 196.952005,298.767998 195.944,299.2 C194.935995,299.632002 193.856006,299.848 192.704,299.848 L190.58,299.848 L190.58,310 L184.532,310 L184.532,283.216 L192.704,283.216 Z M218.84,289.264 L208.472,289.264 L208.472,293.584 L216.104,293.584 L216.104,299.632 L208.472,299.632 L208.472,303.952 L218.84,303.952 L218.84,310 L202.424,310 L202.424,283.216 L218.84,283.216 L218.84,289.264 Z M154.94,314.144 L158.972,314.144 L158.972,332 L154.892,332 L149.852,322.016 L149.852,332 L145.82,332 L145.82,314.144 L149.924,314.144 L154.94,324.104 L154.94,314.144 Z M171.236,318.176 L164.324,318.176 L164.324,321.056 L169.412,321.056 L169.412,325.088 L164.324,325.088 L164.324,327.968 L171.236,327.968 L171.236,332 L160.292,332 L160.292,314.144 L171.236,314.144 L171.236,318.176 Z M185.42,314.144 L189.452,314.144 L183.236,332 L179.156,332 L172.94,314.144 L176.972,314.144 L181.196,326.288 L185.42,314.144 Z M201.092,318.176 L194.18,318.176 L194.18,321.056 L199.268,321.056 L199.268,325.088 L194.18,325.088 L194.18,327.968 L201.092,327.968 L201.092,332 L190.148,332 L190.148,314.144 L201.092,314.144 L201.092,318.176 Z M209.876,332 L206.756,325.232 L206.708,325.232 L206.708,332 L202.676,332 L202.676,314.144 L208.124,314.144 C208.892004,314.144 209.615997,314.287999 210.296,314.576 C210.976003,314.864001 211.567997,315.259997 212.072,315.764 C212.576003,316.268003 212.971999,316.855997 213.26,317.528 C213.548001,318.200003 213.692,318.919996 213.692,319.688 C213.692,320.776005 213.412003,321.755996 212.852,322.628 C212.291997,323.500004 211.556005,324.167998 210.644,324.632 L214.028,332 L209.876,332 Z M157.298,354.684 C157.298,355.116002 157.268,355.535998 157.208,355.944 C157.148,356.352002 157.058001,356.759998 156.938,357.168 C156.673999,358.008004 156.290003,358.787996 155.786,359.508 C155.281997,360.228004 154.682003,360.845997 153.986,361.362 C153.289997,361.878003 152.522004,362.279999 151.682,362.568 C150.841996,362.856001 149.954005,363 149.018,363 C147.865994,363 146.792005,362.784002 145.796,362.352 C144.799995,361.919998 143.924004,361.326004 143.168,360.57 C142.411996,359.813996 141.818002,358.932005 141.386,357.924 C140.953998,356.915995 140.738,355.836006 140.738,354.684 L146.786,354.684 C146.786,355.308003 147.001998,355.841998 147.434,356.286 C147.866002,356.730002 148.393997,356.952 149.018,356.952 C149.522003,356.952 149.965998,356.802002 150.35,356.502 C150.734002,356.201999 150.997999,355.824002 151.142,355.368 C151.214,355.175999 151.25,354.960001 151.25,354.72 C151.25,354.095997 151.034002,353.592002 150.602,353.208 C150.169998,352.823998 149.642003,352.632 149.018,352.632 C147.865994,352.632 146.792005,352.422002 145.796,352.002 C144.799995,351.581998 143.924004,351.006004 143.168,350.274 C142.411996,349.541996 141.818002,348.684005 141.386,347.7 C140.953998,346.715995 140.738,345.648006 140.738,344.496 C140.738,344.087998 140.768,343.680002 140.828,343.272 C140.888,342.863998 140.977999,342.456002 141.098,342.048 C141.362001,341.207996 141.745997,340.428004 142.25,339.708 C142.754003,338.987996 143.353997,338.370003 144.05,337.854 C144.746003,337.337997 145.513996,336.936001 146.354,336.648 C147.194004,336.359999 148.081995,336.216 149.018,336.216 C150.170006,336.216 151.243995,336.431998 152.24,336.864 C153.236005,337.296002 154.111996,337.889996 154.868,338.646 C155.624004,339.402004 156.217998,340.283995 156.65,341.292 C157.082002,342.300005 157.298,343.367994 157.298,344.496 L151.25,344.496 C151.25,343.871997 151.034002,343.344002 150.602,342.912 C150.169998,342.479998 149.642003,342.264 149.018,342.264 C148.513997,342.264 148.070002,342.413998 147.686,342.714 C147.301998,343.014002 147.038001,343.391998 146.894,343.848 C146.822,344.016001 146.786,344.231999 146.786,344.496 C146.786,345.120003 147.001998,345.623998 147.434,346.008 C147.866002,346.392002 148.393997,346.584 149.018,346.584 C150.170006,346.584 151.243995,346.793998 152.24,347.214 C153.236005,347.634002 154.111996,348.209996 154.868,348.942 C155.624004,349.674004 156.217998,350.531995 156.65,351.516 C157.082002,352.500005 157.298,353.555994 157.298,354.684 Z M177.422,336.216 L177.422,342.264 L171.338,342.264 L171.338,363 L165.29,363 L165.29,342.264 L159.206,342.264 L159.206,336.216 L177.422,336.216 Z M200.102,352.344 C200.078,353.760007 199.814003,355.103994 199.31,356.376 C198.805997,357.648006 198.074005,358.787995 197.114,359.796 C196.129995,360.852005 195.008006,361.655997 193.748,362.208 C192.487994,362.760003 191.150007,363.036 189.734,363.036 L189.698,363.036 C188.305993,363.036 186.980006,362.760003 185.72,362.208 C184.459994,361.655997 183.326005,360.864005 182.318,359.832 C181.381995,358.823995 180.656003,357.684006 180.14,356.412 C179.623997,355.139994 179.354,353.784007 179.33,352.344 L179.33,346.08 C179.450001,344.807994 179.767997,343.608006 180.284,342.48 C180.800003,341.351994 181.477996,340.332005 182.318,339.42 C183.326005,338.387995 184.453994,337.596003 185.702,337.044 C186.950006,336.491997 188.281993,336.216 189.698,336.216 L189.734,336.216 C191.150007,336.216 192.487994,336.491997 193.748,337.044 C195.008006,337.596003 196.129995,338.387995 197.114,339.42 C197.978004,340.332005 198.661997,341.351994 199.166,342.48 C199.670003,343.608006 199.981999,344.807994 200.102,346.08 L200.102,352.344 Z M210.542,336.216 C211.694006,336.216 212.773995,336.431998 213.782,336.864 C214.790005,337.296002 215.671996,337.889996 216.428,338.646 C217.184004,339.402004 217.777998,340.283995 218.21,341.292 C218.642002,342.300005 218.858,343.379994 218.858,344.532 C218.858,345.684006 218.642002,346.763995 218.21,347.772 C217.777998,348.780005 217.184004,349.661996 216.428,350.418 C215.671996,351.174004 214.790005,351.767998 213.782,352.2 C212.773995,352.632002 211.694006,352.848 210.542,352.848 L208.418,352.848 L208.418,363 L202.37,363 L202.37,336.216 L210.542,336.216 Z M163.316,368.288 L171.38,368.288 L171.38,404 L163.22,404 L153.14,384.032 L153.14,404 L145.076,404 L145.076,368.288 L153.284,368.288 L163.316,388.208 L163.316,368.288 Z M201.668,389.792 C201.636,391.680009 201.284003,393.471992 200.612,395.168 C199.939997,396.864008 198.964006,398.383993 197.684,399.728 C196.371993,401.136007 194.876008,402.207996 193.196,402.944 C191.515992,403.680004 189.732009,404.048 187.844,404.048 L187.796,404.048 C185.939991,404.048 184.172008,403.680004 182.492,402.944 C180.811992,402.207996 179.300007,401.152007 177.956,399.776 C176.707994,398.431993 175.740003,396.912008 175.052,395.216 C174.363997,393.519992 174.004,391.71201 173.972,389.792 L173.972,381.44 C174.132001,379.743992 174.555997,378.144008 175.244,376.64 C175.932003,375.135992 176.835994,373.776006 177.956,372.56 C179.300007,371.183993 180.803992,370.128004 182.468,369.392 C184.132008,368.655996 185.907991,368.288 187.796,368.288 L187.844,368.288 C189.732009,368.288 191.515992,368.655996 193.196,369.392 C194.876008,370.128004 196.371993,371.183993 197.684,372.56 C198.836006,373.776006 199.747997,375.135992 200.42,376.64 C201.092003,378.144008 201.507999,379.743992 201.668,381.44 L201.668,389.792 Z M212.9,404 L204.884,404 L204.884,395.936 L212.9,395.936 L212.9,404 Z M212.9,368.288 L212.9,393.104 L204.836,393.104 L204.836,368.288 L212.9,368.288 Z"
                id="HELL-NO-Nope-never-S-Copy"></path>
        </g>
    </g>
</svg>