<?xml version="1.0" encoding="UTF-8"?>
<svg height="55px" version="1.1" viewBox="0 0 224 55" width="224px"
    xmlns="http://www.w3.org/2000/svg">
    <!-- Generator: Sketch 50.2 (55047) - http://www.bohemiancoding.com/sketch -->
    <title>Should I? Copy</title>
    <desc>Created with Sketch.</desc>
    <defs></defs>
    <g fill="none" fill-rule="evenodd" id="Page-1" stroke="none" stroke-width="1">
        <g fill="#EEFF41" id="Trigger" transform="translate(-68.000000, -222.000000)">
            <path
                d="M97.4140625,228.984375 C100.273452,228.984375 103.296859,230.578109 106.484375,233.765625 L106.484375,233.90625 C106.484375,235.140631 105.585946,236.078122 103.789062,236.71875 L100.367188,234.28125 C99.2421819,233.531246 97.8906329,233.15625 96.3125,233.15625 L96.0546875,233.15625 C93.4296744,233.15625 90.6562646,233.773431 87.734375,235.007812 C86.4999938,235.757816 85.8828125,236.484371 85.8828125,237.1875 C85.8828125,239.312511 87.5546708,241.281241 90.8984375,243.09375 C93.1171986,244.734383 100.359314,246.609364 112.625,248.71875 C119.968787,250.640635 124.304681,252.406242 125.632812,254.015625 C126.320316,254.015625 127.054684,255.367174 127.835938,258.070312 C127.835938,259.992197 126.414077,262.281237 123.570312,264.9375 C122.226556,266.01563 119.023463,267.648427 113.960938,269.835938 C105.960898,272.289075 100.367203,273.515625 97.1796875,273.515625 C96.4140587,273.750001 94.1640812,273.999999 90.4296875,274.265625 C82.1640212,274.265625 74.9609682,272.296895 68.8203125,268.359375 L68.2109375,267.023438 C68.2109375,265.914057 69.1484281,264.726569 71.0234375,263.460938 L71.7734375,263.34375 L72.1484375,263.34375 C73.054692,264.515631 74.4765528,265.492184 76.4140625,266.273438 C81.6640888,268.648449 87.2734077,269.835938 93.2421875,269.835938 C96.351578,269.835938 101.992147,268.976571 110.164062,267.257812 C114.757835,265.929681 118.273425,264.578132 120.710938,263.203125 C122.445321,262.437496 123.3125,261.664066 123.3125,260.882812 C123.031249,259.46093 122.210944,258.281255 120.851562,257.34375 C118.695302,255.843742 114.320345,254.367195 107.726562,252.914062 C96.7890078,250.945303 89.9140766,249.101571 87.1015625,247.382812 C83.3359187,245.304677 81.453125,242.890639 81.453125,240.140625 L81.453125,240.046875 C81.453125,237.265611 83.4218553,234.515639 87.359375,231.796875 C88.4375054,230.89062 90.8515437,229.992192 94.6015625,229.101562 L96.921875,229.101562 L97.4140625,228.984375 Z M133.34375,222.75 C133.828127,222.703125 134.187499,223.828114 134.421875,226.125 C134.562501,226.109375 134.789061,227.617172 135.101562,230.648438 L135.148438,230.953125 C135.460939,233.937515 134.867195,239.69527 133.367188,248.226562 C138.648464,246.101552 141.843744,244.984376 142.953125,244.875 L143.351562,244.828125 C144.992196,244.656249 146.007811,245.265618 146.398438,246.65625 L146.585938,248.273438 C146.757813,249.914071 146.031258,253.093726 144.40625,257.8125 C143.593746,260.468763 143.164063,263.515608 143.117188,266.953125 C143.289063,268.656259 143.671872,269.609374 144.265625,269.8125 C144.390626,271.062506 143.546884,272.17187 141.734375,273.140625 L141.335938,273.1875 C140.320307,272.687498 139.773438,271.43751 139.695312,269.4375 C139.695312,266.796862 139.906248,264.601571 140.328125,262.851562 C140.28125,262.304685 141.164053,259.039092 142.976562,253.054688 L143.140625,250.570312 L143.046875,249.65625 C142.843749,248.937496 142.195318,248.632812 141.101562,248.742188 C139.695305,249.101564 136.898458,250.078117 132.710938,251.671875 C131.710933,257.703155 131.281249,261.398431 131.421875,262.757812 C131.921877,263.17969 132.433591,264.042962 132.957031,265.347656 C133.480471,266.65235 132.609386,267.867182 130.34375,268.992188 L130.039062,269.039062 C129.47656,269.085938 128.875003,268.531256 128.234375,267.375 L128.117188,267.28125 L128.09375,267.1875 C127.765623,264.015609 128.265618,259.023472 129.59375,252.210938 C131.328134,242.789015 132.031252,236.468766 131.703125,233.25 L131.65625,232.851562 C131.499999,231.382805 131.117191,229.070328 130.507812,225.914062 C131.08594,223.945303 132.031243,222.890626 133.34375,222.75 Z M162.546875,245.765625 C164.546885,245.765625 165.914059,246.742178 166.648438,248.695312 C167.05469,249.992194 167.257812,250.906247 167.257812,251.4375 L167.257812,252.796875 C167.257812,254.921886 165.968763,257.546859 163.390625,260.671875 C159.953108,264.937521 156.664078,267.070312 153.523438,267.070312 C151.257801,267.070312 149.648442,265.703139 148.695312,262.96875 C148.414061,261.98437 148.273438,261.179691 148.273438,260.554688 C148.273438,256.03904 150.335917,251.914081 154.460938,248.179688 C155.367192,247.445309 156.593742,246.921877 158.140625,246.609375 C158.140625,246.359374 158.976554,246.078127 160.648438,245.765625 L162.546875,245.765625 Z M152.046875,257.929688 C152.437502,261.429705 153.765614,263.179688 156.03125,263.179688 C157.406257,263.179688 158.742181,262.484382 160.039062,261.09375 C162.335949,258.515612 163.484375,256.484382 163.484375,255 L163.484375,254.273438 C163.484375,253.210932 163.070317,251.953132 162.242188,250.5 L162.125,250.5 C161.609372,250.843752 161.156252,251.015625 160.765625,251.015625 L158.5625,249.960938 C155.828111,250.351564 154.460938,250.843747 154.460938,251.4375 C152.851554,253.46876 152.046875,255.632801 152.046875,257.929688 Z M186.03125,246.867188 L186.429688,246.867188 C186.976565,246.867188 187.25,247.484369 187.25,248.71875 L187.25,251.15625 C187.25,252.656258 186.500008,254.968734 185,258.09375 L185,258.304688 C185,260.71095 186.570297,262.343746 189.710938,263.203125 L190.015625,263.90625 C190.015625,265.046881 189.132821,265.999996 187.367188,266.765625 L187.15625,266.765625 C185.734368,266.765625 184.273445,266.054695 182.773438,264.632812 C182.085934,263.773433 181.742188,263.195314 181.742188,262.898438 C178.882798,265.945328 176.367198,267.46875 174.195312,267.46875 L173.28125,267.585938 L172.859375,267.585938 C171.76562,267.585938 170.679693,266.906257 169.601562,265.546875 C169.19531,264.843746 168.992188,263.78907 168.992188,262.382812 L168.992188,261.164062 C169.570315,256.820291 170.898427,253.351575 172.976562,250.757812 C173.945317,249.726557 174.960932,249.210938 176.023438,249.210938 L176.234375,249.210938 L176.632812,249.632812 C176.632812,250.523442 175.921882,251.437495 174.5,252.375 C173.281244,255.609391 172.671875,257.890618 172.671875,259.21875 L172.671875,259.828125 C172.671875,262.000011 173.382805,263.296873 174.804688,263.71875 L175.53125,263.90625 C177.000007,263.90625 178.156246,263.429692 179,262.476562 C180.515633,260.835929 181.296875,259.648441 181.34375,258.914062 C181.781252,253.46091 182.390621,250.226568 183.171875,249.210938 C184.281256,247.64843 185.234371,246.867188 186.03125,246.867188 Z M195.359375,223.96875 L195.640625,223.96875 C195.953127,223.96875 196.218749,225.078114 196.4375,227.296875 C196.4375,229.156259 196.195315,233.35153 195.710938,239.882812 C195.117185,243.757832 194.761719,248.246068 194.644531,253.347656 C194.527343,258.449244 194.796872,261.390621 195.453125,262.171875 C196.109378,263.484382 196.4375,264.296873 196.4375,264.609375 C195.874997,266.109382 195.093755,266.859375 194.09375,266.859375 L193.695312,266.859375 C192.17968,266.859375 191.382813,263.632845 191.304688,257.179688 L191.304688,249.46875 C191.929691,242.921842 192.343749,238.824227 192.546875,237.175781 C192.750001,235.527336 192.875,232.97658 192.921875,229.523438 L192.523438,226.59375 C193.320316,224.843741 194.26562,223.96875 195.359375,223.96875 Z M216.992188,224.320312 C217.382814,224.429688 217.578125,224.703123 217.578125,225.140625 L217.695312,228.1875 C217.695312,232.953149 217.031257,239.296835 215.703125,247.21875 C215.234373,251.062519 215,254.218738 215,256.6875 C215,260.265643 215.820304,262.601557 217.460938,263.695312 L217.578125,264.164062 C217.578125,265.304693 216.523448,266.437494 214.414062,267.5625 L214.0625,267.5625 C212.796869,267.5625 211.789066,265.968766 211.039062,262.78125 L211.039062,262.3125 C207.52342,265.421891 204.406264,266.976562 201.6875,266.976562 L201.570312,266.976562 C200.14843,266.976562 199.015629,266.234382 198.171875,264.75 L198.054688,264.046875 L198.054688,260.90625 C198.289064,258.328112 199.460927,255.28908 201.570312,251.789062 C203.929699,249.28905 206.070303,247.726566 207.992188,247.101562 C209.148443,246.320309 210.468743,245.929688 211.953125,245.929688 L211.953125,245.835938 C212.968755,240.554661 213.476562,235.601586 213.476562,230.976562 L213.359375,227.601562 C214.218754,225.414052 215.42968,224.320312 216.992188,224.320312 Z M202.273438,258.679688 L202.273438,261.023438 C202.273438,261.773441 202.968743,262.359373 204.359375,262.78125 C206.500011,262.78125 208.648427,261.375014 210.804688,258.5625 L210.804688,258.445312 C210.804688,256.226551 211.031248,253.343768 211.484375,249.796875 C208.890612,250.109377 207.14063,250.578122 206.234375,251.203125 C204.937494,251.734378 203.882817,253.054677 203.070312,255.164062 C202.53906,256.851571 202.273438,258.023434 202.273438,258.679688 Z M264.734375,229.476562 L265.625,229.476562 C267.968762,229.476562 269.406247,230.226555 269.9375,231.726562 L269.9375,232.96875 C269.9375,234.562508 268.718762,235.999994 266.28125,237.28125 L263.539062,237.960938 L263.421875,237.5625 C263.421875,237.390624 264.023431,236.734381 265.226562,235.59375 L265.226562,235.21875 C264.69531,234.515621 263.570321,234.164062 261.851562,234.164062 L261.570312,234.164062 C259.648428,234.164062 255.359408,235.078116 248.703125,236.90625 L248.703125,239.367188 C248.703125,245.351592 247.054704,253.164014 243.757812,262.804688 L242.328125,267.117188 L242.445312,267.117188 C249.8516,263.382794 255.27342,261.421876 258.710938,261.234375 L260.679688,261.234375 C262.695323,261.546877 263.703125,262.109371 263.703125,262.921875 L263.703125,263.085938 C262.781245,265.414074 261.429696,266.578125 259.648438,266.578125 L257.164062,265.945312 L257.023438,265.945312 C253.742171,265.945312 249.32034,267.374986 243.757812,270.234375 C241.664052,271.015629 240.617188,271.617185 240.617188,272.039062 C240.617188,274.085948 239.320325,275.656245 236.726562,276.75 L236.328125,276.75 L235.835938,276.1875 L235.835938,275.90625 C235.835938,275.406248 235.999998,274.585943 236.328125,273.445312 C232.999983,274.929695 230.578133,275.671875 229.0625,275.671875 L228.6875,275.671875 L228.125,275.15625 C228.125,274.17187 229.007804,272.570324 230.773438,270.351562 C231.585942,269.664059 232.218748,269.320312 232.671875,269.320312 L232.8125,269.320312 L233.328125,269.835938 L233.1875,270.726562 L233.328125,270.726562 C236.718767,269.773433 238.414062,268.953128 238.414062,268.265625 C239.101566,265.828113 239.968745,263.351575 241.015625,260.835938 C244.156266,251.101514 245.726562,244.546892 245.726562,241.171875 L245.726562,238.875 L245.9375,237.960938 L245.84375,237.960938 C241.499978,239.742196 239.328125,240.960934 239.328125,241.617188 C238.29687,242.304691 237.515628,242.648438 236.984375,242.648438 C236.281246,242.22656 235.929688,241.734378 235.929688,241.171875 C235.929688,239.578117 238.148415,237.81251 242.585938,235.875 C244.804699,234.484368 248.359351,233.046882 253.25,231.5625 C258.859403,230.171868 262.68749,229.476562 264.734375,229.476562 Z M275.234375,224.085938 C282.828163,224.085938 287.10937,224.507808 288.078125,225.351562 C289.04688,225.648439 289.929684,226.546868 290.726562,228.046875 C290.992189,228.531252 291.125,229.046872 291.125,229.59375 L291.125,229.804688 C291.125,232.507826 290.031261,235.242174 287.84375,238.007812 C286.484368,239.992197 283.562522,243.046854 279.078125,247.171875 C274.093725,251.921899 271.156254,255.546863 270.265625,258.046875 L269.773438,260.25 C269.773438,261.406256 270.124996,262.48437 270.828125,263.484375 L270.992188,264.140625 L270.992188,265.265625 L271.0625,265.617188 L270.734375,265.898438 C268.671865,265.898438 267.445314,265.16407 267.054688,263.695312 L266.890625,261.9375 L266.890625,261.515625 C266.890625,260.218744 267.718742,258.218764 269.375,255.515625 C270.656256,253.484365 272.874984,250.937515 276.03125,247.875 L282.6875,241.453125 C286.390644,237.562481 288.242188,234.312513 288.242188,231.703125 L288.242188,231.28125 C288.242188,230.578121 287.70313,229.593756 286.625,228.328125 C285.60937,227.640622 284.195322,227.171876 282.382812,226.921875 C281.195307,226.765624 278.195337,226.570314 273.382812,226.335938 L273.21875,225.914062 C273.21875,225.257809 273.890618,224.64844 275.234375,224.085938 Z M269.773438,267.539062 L269.9375,267.539062 C270.156251,267.539062 270.640621,268.648426 271.390625,270.867188 L271.390625,271.007812 C271.390625,271.882817 270.640633,272.515623 269.140625,272.90625 C268.578122,272.90625 267.992191,271.781261 267.382812,269.53125 C268.007816,268.203118 268.804683,267.539062 269.773438,267.539062 Z"
                id="Should-I?-Copy"></path>
        </g>
    </g>
</svg>