<?xml version="1.0" encoding="UTF-8"?>
<svg height="140px" version="1.1" viewBox="0 0 86 140" width="86px"
    xmlns="http://www.w3.org/2000/svg">
    <!-- Generator: Sketch 50.2 (55047) - http://www.bohemiancoding.com/sketch -->
    <title>Oh Yes please Copy</title>
    <desc>Created with Sketch.</desc>
    <defs></defs>
    <g fill="none" fill-rule="evenodd" id="Page-1" stroke="none" stroke-width="1">
        <g fill="#8BC34A" id="Yes" transform="translate(-135.000000, -256.000000)">
            <path
                d="M171.144,260.512 C167.208,265.696 164.664,272.752 164.664,280.624 C164.664,284.752 165.816,288.4 168.456,288.4 C172.584,288.4 177.24,276.976 177.24,268 C177.24,262.72 176.28,258.208 170.232,258.208 C162.456,258.208 157.272,262.576 157.272,269.872 C157.272,272.32 157.896,272.704 157.944,273.136 C154.632,273.136 152.808,271.936 152.808,268.48 C152.808,262.096 161.64,256 169.656,256 C179.16,256 182.808,260.656 182.808,269.008 C182.808,278.368 177.048,292.432 168.456,292.432 C162.312,292.432 158.616,289.552 158.616,281.584 C158.616,272.608 161.784,260.128 168.888,260.128 C169.608,260.128 170.328,260.272 171.144,260.512 Z M205.896,287.584 C204.552,291.712 202.536,292 200.904,292 C197.496,292 196.008,289.744 196.008,286.72 C196.008,285.952 196.104,285.136 196.296,284.32 L198.12,275.68 C198.168,275.344 198.216,274.96 198.216,274.576 C198.216,273.04 197.544,271.6 196.056,271.6 C194.904,271.6 193.992,271.936 193.032,272.656 L188.904,292 L181.992,292 L188.952,259.36 L196.056,258.4 L193.464,270.592 C195.432,269.152 197.64,268 199.752,268 C202.44,268 205.272,270.928 205.272,274.096 C205.272,274.432 205.272,274.816 205.176,275.152 L203.208,284.32 C203.064,284.944 202.824,285.664 202.824,286.288 C202.824,287.104 203.208,287.728 204.648,287.728 C204.984,287.728 205.512,287.728 205.896,287.584 Z M166.528,352 L156.288,352 L160.512,332.288 L154.368,308.288 C148.416,310.464 144.832,315.456 144.832,322.496 C144.832,325.76 145.664,326.272 145.728,326.848 C141.312,326.848 138.88,325.248 138.88,320.64 C138.88,312.128 150.656,304 161.344,304 C162.24,304 163.072,304.064 163.904,304.128 L169.472,327.04 L178.944,304.32 L183.168,304.32 L170.752,332.288 L166.528,352 Z M185.664,341.888 C185.664,346.112 188.416,347.392 190.912,347.392 C193.344,347.392 195.52,345.664 197.44,342.592 C197.76,338.176 199.872,335.616 202.304,335.424 C204.48,331.264 205.76,325.632 206.848,320.768 L216.128,318.848 L216.128,319.744 C216.128,330.304 220.8,333.376 220.8,340.864 C220.8,346.816 217.024,352 208.384,352 C202.176,352 198.72,350.528 197.696,346.368 C195.072,349.696 191.744,352 186.496,352 C180.352,352 177.024,347.328 177.024,341.824 C177.024,333.696 180.48,319.424 192.128,319.424 C197.376,319.424 200.32,321.6 200.32,326.08 C200.32,333.888 191.936,338.368 185.856,339.136 C185.728,340.16 185.664,341.12 185.664,341.888 Z M207.232,339.264 C207.168,341.696 205.248,343.36 203.008,343.36 C202.24,343.36 201.472,343.168 200.704,342.784 C200.704,346.56 202.752,348.224 206.144,348.224 C208.32,348.224 211.456,345.536 211.456,340.608 C211.456,336.64 208.576,333.248 208.448,325.248 C207.424,328.384 206.528,332.48 205.12,335.68 C206.656,336.192 207.232,337.344 207.232,339.264 Z M196.48,326.4 C196.48,325.056 196.16,322.816 194.24,322.816 C190.656,322.816 187.712,330.048 186.368,336.064 C192.256,336 196.416,330.944 196.48,326.4 Z M140.778,369 L145.962,369 L145.818,369.684 C146.574,369.288 147.438,369.036 148.338,369.036 C152.082,369.036 153.846,370.368 153.846,374.076 C153.846,374.832 153.774,375.66 153.63,376.596 C152.514,384.336 149.418,386.964 145.746,386.964 C144.558,386.964 143.442,386.568 142.362,385.884 L140.49,394.704 L135.054,396 L140.778,369 Z M145.17,384.3 C146.97,384.3 147.834,382.752 149.022,377.028 C149.346,375.444 149.49,374.256 149.49,373.392 C149.49,371.232 148.626,370.8 147.474,370.8 C146.79,370.8 146.106,371.088 145.422,371.556 L142.83,383.652 C143.694,384.3 144.594,384.3 145.17,384.3 Z M158.886,362.52 L164.214,361.8 L160.074,381.24 C159.966,381.78 159.894,382.104 159.894,382.392 C159.894,383.184 160.29,383.724 161.694,383.724 C163.134,383.724 165.006,381.708 166.446,380.556 L167.67,380.556 C166.014,382.212 161.946,387 159.138,387 C156.366,387 154.674,385.776 154.674,383.076 C154.674,382.536 154.746,381.924 154.89,381.24 L158.886,362.52 Z M169.398,381.312 C169.398,383.688 170.946,384.408 172.35,384.408 C174.114,384.408 177.138,382.32 178.398,379.656 L180.018,379.656 C177.966,383.364 174.51,387 169.866,387 C166.41,387 164.538,384.372 164.538,381.276 C164.538,376.704 166.482,368.676 173.034,368.676 C175.986,368.676 177.642,369.9 177.642,372.42 C177.642,376.812 172.926,379.332 169.506,379.764 C169.434,380.34 169.398,380.88 169.398,381.312 Z M175.482,372.6 C175.482,371.844 175.302,370.584 174.222,370.584 C172.206,370.584 170.55,374.652 169.794,378.036 C173.106,378 175.446,375.156 175.482,372.6 Z M189.378,369 L194.526,369 L191.97,381.24 C191.862,381.78 191.79,382.212 191.79,382.572 C191.79,383.328 192.078,383.724 192.906,383.724 C193.302,383.724 193.842,383.22 194.418,382.392 C194.418,379.404 195.714,377.748 197.154,377.64 C198.45,375.3 199.278,372.096 199.89,369.36 L205.11,368.28 L205.11,368.784 C205.11,374.724 207.522,376.524 207.558,380.736 L207.522,381.492 C208.53,380.592 209.43,379.656 209.862,379.152 L210.798,380.376 C209.79,381.168 208.35,382.428 206.91,383.652 C205.974,385.632 203.922,387 200.574,387 C197.262,387 195.318,386.244 194.67,384.156 C193.374,385.812 192.078,387 191.034,387 C188.514,387 187.146,385.92 186.714,384.192 C185.634,385.704 184.014,387.216 181.782,387.216 C178.326,387.216 177.318,384.768 177.318,382.644 C177.318,376.452 179.55,369.036 186.75,369.036 C187.614,369.036 188.514,369.396 189.162,369.936 L189.378,369 Z M186.786,381.24 L188.802,371.7 C188.226,371.196 187.542,371.052 187.038,371.052 C184.338,371.052 182.178,376.776 182.178,381.672 C182.178,383.832 183.366,384.228 184.266,384.228 C185.094,384.228 185.886,383.4 186.606,382.392 C186.606,382.032 186.678,381.636 186.786,381.24 Z M199.926,379.836 C199.926,381.204 198.81,382.14 197.55,382.14 C197.118,382.14 196.722,382.032 196.29,381.852 C196.254,382.032 196.218,382.248 196.218,382.428 C196.218,383.976 197.91,384.876 199.314,384.876 C200.538,384.876 202.302,383.364 202.302,380.592 C202.302,378.36 200.682,376.452 200.61,371.952 C200.034,373.716 199.53,376.02 198.738,377.82 C199.602,378.108 199.926,378.756 199.926,379.836 Z M213.066,387 C209.61,387 207.738,384.372 207.738,381.276 C207.738,376.704 209.682,368.676 216.234,368.676 C219.186,368.676 220.842,369.9 220.842,372.42 C220.842,376.812 216.126,379.332 212.706,379.764 C212.634,380.34 212.598,380.88 212.598,381.312 C212.598,383.688 213.786,384.408 215.19,384.408 C216.882,384.408 218.322,383.436 219.798,382.104 C219.798,385.992 216.666,387 213.066,387 Z M218.682,372.6 C218.682,371.844 218.502,370.584 217.422,370.584 C215.406,370.584 213.75,374.652 212.994,378.036 C216.306,378 218.646,375.156 218.682,372.6 Z"
                id="Oh-Yes-please-Copy"></path>
        </g>
    </g>
</svg>